C:\Users\jackb\Documents\projects\Masters\adult_control\InputData/emg/ng10203_crop.c3d.mot
nRows=29
nColumns=13

name C:\Users\jackb\Documents\projects\Masters\adult_control\InputData/emg/ng10203_crop.c3d.mot
datacolumns 13
datarows 29
range 1.5050000000 1.5190000000
endheader
time	soleus_r	rect_fem_r	lat_gas_r	med_gas_r	vas_lat_r	vas_med_r	bifemlh_r	semimem_r	tib_ant_r	per_brev_r	ext_dig_r	ext_hal_r
        1.5050000000	        0.0484434984	        0.0404830701	        0.0374396318	        0.0266952172	        0.0176688548	        0.0247158415	        0.0415478314	        0.0413568621	        0.1646683574	        0.0812393663	        0.2941447047	        0.2375215437	
        1.5055000000	        0.0483700945	        0.0403740074	        0.0373476291	        0.0265203409	        0.0176554782	        0.0246228360	        0.0414213433	        0.0411708182	        0.1632696495	        0.0812808620	        0.2922134297	        0.2377162177	
        1.5060000000	        0.0482978605	        0.0402627846	        0.0372584464	        0.0263519652	        0.0176388862	        0.0245243183	        0.0412878798	        0.0409848125	        0.1619209602	        0.0813249643	        0.2902882263	        0.2379612472	
        1.5065000000	        0.0482267281	        0.0401494230	        0.0371721104	        0.0261901553	        0.0176190938	        0.0244204240	        0.0411475672	        0.0407988687	        0.1606231416	        0.0813717290	        0.2883717039	        0.2382562608	
        1.5070000000	        0.0481566253	        0.0400339424	        0.0370886391	        0.0260349615	        0.0175961128	        0.0243113112	        0.0410005361	        0.0406130148	        0.1593768180	        0.0814211764	        0.2864662807	        0.2386005997	
        1.5075000000	        0.0480874775	        0.0399163670	        0.0370080411	        0.0258864189	        0.0175699525	        0.0241971587	        0.0408469226	        0.0404272874	        0.1581824001	        0.0814732927	        0.2845741244	        0.2389933358	
        1.5080000000	        0.0480192090	        0.0397967272	        0.0369303136	        0.0257445459	        0.0175406201	        0.0240781635	        0.0406868720	        0.0402417308	        0.1570401001	        0.0815280314	        0.2826971750	        0.2394332881	
        1.5085000000	        0.0479517449	        0.0396750615	        0.0368554416	        0.0256093420	        0.0175081201	        0.0239545388	        0.0405205409	        0.0400563933	        0.1559499323	        0.0815853156	        0.2808372070	        0.2399190303	
        1.5090000000	        0.0478850156	        0.0395514170	        0.0367833980	        0.0254807867	        0.0174724537	        0.0238265113	        0.0403480977	        0.0398713256	        0.1549117115	        0.0816450408	        0.2789958548	        0.2404488935	
        1.5095000000	        0.0478189593	        0.0394258493	        0.0367141487	        0.0253588401	        0.0174336206	        0.0236943162	        0.0401697197	        0.0396865799	        0.1539250599	        0.0817070778	        0.2771745823	        0.2410209774	
        1.5100000000	        0.0477535190	        0.0392984287	        0.0366476570	        0.0252434452	        0.0173916204	        0.0235581933	        0.0399855897	        0.0395022082	        0.1529894206	        0.0817712781	        0.2753746446	        0.2416331703	
        1.5105000000	        0.0476886375	        0.0391692577	        0.0365838857	        0.0251345286	        0.0173464540	        0.0234183833	        0.0397958951	        0.0393182617	        0.1521040719	        0.0818374767	        0.2735970789	        0.2422831734	
        1.5110000000	        0.0476242541	        0.0390384865	        0.0365227952	        0.0250320018	        0.0172981242	        0.0232751260	        0.0396008298	        0.0391347938	        0.1512681373	        0.0819054922	        0.2718427203	        0.2429685257	
        1.5115000000	        0.0475603079	        0.0389063152	        0.0364643429	        0.0249357610	        0.0172466384	        0.0231286553	        0.0394005953	        0.0389518629	        0.1504805950	        0.0819751261	        0.2701122429	        0.2436866311	
        1.5120000000	        0.0474967453	        0.0387729772	        0.0364084840	        0.0248456897	        0.0171920134	        0.0229791958	        0.0391953991	        0.0387695304	        0.1497402898	        0.0820461646	        0.2684062104	        0.2444347913	
        1.5125000000	        0.0474335333	        0.0386387138	        0.0363551728	        0.0247616594	        0.0171342788	        0.0228269609	        0.0389854505	        0.0385878573	        0.1490459497	        0.0821183829	        0.2667250998	        0.2452102449	
        1.5130000000	        0.0473706722	        0.0385037560	        0.0363043611	        0.0246835308	        0.0170734795	        0.0226721544	        0.0387709571	        0.0384069043	        0.1483962055	        0.0821915495	        0.2650692922	        0.2460102047	
        1.5135000000	        0.0473082082	        0.0383683185	        0.0362559956	        0.0246111544	        0.0170096736	        0.0225149724	        0.0385521233	        0.0382267307	        0.1477896070	        0.0822654279	        0.2634390575	        0.2468318742	
        1.5140000000	        0.0472462396	        0.0382326025	        0.0362100169	        0.0245443720	        0.0169429283	        0.0223556026	        0.0383291494	        0.0380473926	        0.1472246353	        0.0823397774	        0.2618345598	        0.2476724365	
        1.5145000000	        0.0471849176	        0.0380968049	        0.0361663588	        0.0244830187	        0.0168733153	        0.0221942227	        0.0381022322	        0.0378689413	        0.1466997146	        0.0824143510	        0.2602558909	        0.2485290327	
        1.5150000000	        0.0471244386	        0.0379611276	        0.0361249487	        0.0244269217	        0.0168009076	        0.0220310014	        0.0378715675	        0.0376914245	        0.1462132288	        0.0824888937	        0.2587031252	        0.2493987608	
        1.5155000000	        0.0470650291	        0.0378257779	        0.0360857090	        0.0243759015	        0.0167257786	        0.0218661014	        0.0376373547	        0.0375148863	        0.1457635402	        0.0825631434	        0.2571763791	        0.2502786996	
        1.5160000000	        0.0470069241	        0.0376909579	        0.0360485584	        0.0243297725	        0.0166480053	        0.0216996807	        0.0373998016	        0.0373393684	        0.1453490071	        0.0826368319	        0.2556758460	        0.2511659307	
        1.5165000000	        0.0469503495	        0.0375568561	        0.0360134132	        0.0242883460	        0.0165676750	        0.0215318923	        0.0371591267	        0.0371649145	        0.1449679950	        0.0827096852	        0.2542017812	        0.2520575500	
        1.5170000000	        0.0468955185	        0.0374236474	        0.0359801870	        0.0242514315	        0.0164848909	        0.0213628821	        0.0369155573	        0.0369915775	        0.1446188802	        0.0827814248	        0.2527544340	        0.2529506746	
        1.5175000000	        0.0468426389	        0.0372914934	        0.0359487905	        0.0242188377	        0.0163997719	        0.0211927912	        0.0366693275	        0.0368194241	        0.1443000464	        0.0828517705	        0.2513339683	        0.2538424496	
        1.5180000000	        0.0467919222	        0.0371605378	        0.0359191318	        0.0241903712	        0.0163124482	        0.0210217602	        0.0364206741	        0.0366485333	        0.1440098795	        0.0829204428	        0.2499404366	        0.2547300479	
        1.5185000000	        0.0467435879	        0.0370309045	        0.0358911178	        0.0241658347	        0.0162230590	        0.0208499324	        0.0361698315	        0.0364789913	        0.1437467633	        0.0829871625	        0.2485738204	        0.2556106597	
        1.5190000000	        0.0466978641	        0.0369027009	        0.0358646552	        0.0241450267	        0.0161317504	        0.0206774543	        0.0359170276	        0.0363108853	        0.1435090783	        0.0830516506	        0.2472340784	        0.2564814774	
